<?xml version="1.0" encoding="UTF-8" standalone="no"?>
<svg
   version="1.1"
   viewBox="0 0 32 32"
   id="svg56"
   sodipodi:docname="plugin-wf-external-decorator.svg"
   width="32"
   height="32"
   inkscape:version="1.2.2 (b0a8486541, 2022-12-01)"
   xmlns:inkscape="http://www.inkscape.org/namespaces/inkscape"
   xmlns:sodipodi="http://sodipodi.sourceforge.net/DTD/sodipodi-0.dtd"
   xmlns="http://www.w3.org/2000/svg"
   xmlns:svg="http://www.w3.org/2000/svg">
  <defs
     id="defs60">
    <linearGradient
       id="linearGradient3914"
       inkscape:swatch="solid">
      <stop
         style="stop-color:#5f5c5a;stop-opacity:1;"
         offset="0"
         id="stop3912" />
    </linearGradient>
  </defs>
  <sodipodi:namedview
     id="namedview58"
     pagecolor="#ffffff"
     bordercolor="#666666"
     borderopacity="1.0"
     inkscape:showpageshadow="2"
     inkscape:pageopacity="0.0"
     inkscape:pagecheckerboard="0"
     inkscape:deskcolor="#d1d1d1"
     showgrid="false"
     inkscape:zoom="14.676609"
     inkscape:cx="-6.3025458"
     inkscape:cy="7.9718687"
     inkscape:window-width="1909"
     inkscape:window-height="996"
     inkscape:window-x="0"
     inkscape:window-y="28"
     inkscape:window-maximized="1"
     inkscape:current-layer="layer1" />
  <g
     inkscape:groupmode="layer"
     id="layer1"
     inkscape:label="Layer 1">
    <path
       d="M 18.398655,8.1507979 17.305225,2.9540906 H 14.680993 L 13.587563,8.1507979 12.056761,8.8003863 7.6830399,5.9855032 5.7148656,7.7177389 8.557784,12.048327 8.1204119,13.564034 2.8719472,14.646681 v 2.598354 l 5.2484647,1.082647 0.6560581,1.732236 -2.8429184,4.330588 1.7494883,1.732236 4.3737211,-2.814883 1.749488,0.649589 0.874744,4.980177 h 2.624232 l 1.09343,-5.196707 1.749489,-0.649588 4.37372,2.814883 1.749489,-1.732236 -2.842919,-4.330589 0.656058,-1.732235 5.029779,-0.866118 v -2.598354 l -5.248465,-1.082647 -0.656058,-1.732236 2.842919,-4.3305885 -1.749489,-1.7322358 -4.37372,2.8148831 z m 0.656058,-7.36200215 1.093431,5.19670745 4.592407,-2.8148832 4.37372,4.3305895 -3.061604,4.5471175 5.248464,0.866118 v 6.062826 l -5.248464,1.082647 3.061604,4.547118 -4.37372,4.330589 -4.592407,-3.031412 -1.093431,5.196707 H 12.931505 L 11.838074,25.906213 7.2456678,28.721096 2.8719472,24.390506 5.9335516,19.843388 0.68508691,18.977271 V 12.914445 L 5.9335516,11.831798 3.0906332,7.28468 7.4643538,2.9540906 12.056761,5.9855032 12.931505,0.78879575 Z M 20.36683,15.945858 c 0,2.381824 -1.968175,4.330589 -4.373721,4.330589 -2.405546,0 -4.373721,-1.948765 -4.373721,-4.330589 0,-2.381824 1.968175,-4.330589 4.373721,-4.330589 2.405546,0 4.373721,1.948765 4.373721,4.330589 z m -4.373721,2.165295 c 1.312116,0 2.18686,-0.866118 2.18686,-2.165295 0,-1.299177 -0.874744,-2.165295 -2.18686,-2.165295 -1.312116,0 -2.18686,0.866118 -2.18686,2.165295 0,1.299177 0.874744,2.165295 2.18686,2.165295 z"
       fill="#424242"
       id="path152"
       style="stroke-width:0.9;fill:#cccccc;stroke-dasharray:none" />
  </g>
  <g
     id="g461"
     transform="matrix(-1,0,0,1,32.28669,0)">
    <g
       transform="matrix(2.0371613,0,0,1.9299936,59.062432,-21.643048)"
       id="g50"
       style="fill:#56f2f2;fill-opacity:1">
      <path
         d="m -28.5,26.307 c 3.1111,0.0011 2.7936,-3.1806 4.3042,-4.1062 1.7505,-1.0726 3.2845,0.25648 3.5908,1.3503 0.38644,1.3802 -0.33783,2.5087 -1.3003,3.1189 -1.8464,1.1707 -6.3,0.75594 -6.5946,-0.36303 z"
         fill="#f1f2f2"
         id="path48"
         style="fill:#56f2f2;fill-opacity:1" />
    </g>
    <path
       d="m 31.100435,2.2281188 c 0.578619,-1.21849 -0.307221,-1.68578485 -1.374365,-0.6527671 -7.503505,7.2635004 -8.788988,7.320419 -15.806855,16.7448773 1.883108,0.06904 3.499617,1.256233 4.339292,2.969936 8.307776,-8.734077 9.244112,-13.4208761 12.842021,-19.0618731 z"
       id="path52"
       style="fill:#ff5555;fill-opacity:1;stroke-width:2.24518" />
    <rect
       style="opacity:0.98;fill:#b3b3b3;fill-opacity:1;stroke:#b3b1af;stroke-width:1;stroke-dasharray:none;stroke-opacity:1"
       id="rect9639"
       width="6.6157851"
       height="2.3067617"
       x="21.617569"
       y="4.9801888"
       rx="3.3078926"
       ry="0.42768475"
       transform="rotate(38.7)" />
  </g>
</svg>
